<svg width="24" height="24" viewBox="0 0 24 24" fill="none" xmlns="http://www.w3.org/2000/svg">
<path d="M20.1937 16.957L17.4721 12.416C17.4395 12.458 17.4232 12.4744 17.4092 12.4954C16.1012 14.6515 14.7925 16.8069 13.483 18.9615C13.4506 19.0119 13.4361 19.0716 13.4416 19.1313C13.4471 19.1909 13.4723 19.247 13.5133 19.2906C14.0865 20.224 14.655 21.1574 15.2305 22.0908C15.5078 22.5412 15.7618 23.0055 16.0717 23.4349C16.1614 23.575 16.2864 23.6889 16.4341 23.7651C16.5818 23.8413 16.7469 23.8771 16.9129 23.8689C19.0239 23.8503 21.1327 23.8689 23.2414 23.8689C23.3719 23.8689 23.5024 23.8689 23.6329 23.8689C23.6818 23.8683 23.7302 23.8581 23.7752 23.8387C23.8202 23.8194 23.861 23.7914 23.8951 23.7563C23.9293 23.7212 23.9563 23.6797 23.9744 23.6341C23.9926 23.5886 24.0017 23.5399 24.001 23.4909C23.9979 23.3107 23.9366 23.1363 23.8263 22.9939L20.1937 16.95" fill="white"/>
<path d="M14.804 7.07057L17.4394 11.4599C17.4883 11.3829 17.5186 11.3386 17.5466 11.2919L23.8518 0.791072C23.952 0.625392 24.0522 0.46438 23.9334 0.270698C23.8145 0.0770163 23.6304 0.0840162 23.437 0.0840162C21.2887 0.0840162 19.1388 0.0840162 16.9873 0.0840162H16.7706C16.7706 0.0840162 16.4304 0.0840186 16.2883 0.170359C16.1589 0.27057 16.0531 0.398029 15.9784 0.54372C15.1505 1.89716 14.3225 3.2506 13.4945 4.60404C13.4584 4.65579 13.44 4.71788 13.4421 4.781C13.4442 4.84412 13.4667 4.90485 13.5062 4.95407C13.9442 5.65413 14.373 6.37052 14.8017 7.07991" fill="white"/>
<path d="M4.12054 17.5262C5.22811 15.703 6.34422 13.8859 7.46888 12.0751C7.50782 12.026 7.52902 11.9652 7.52902 11.9024C7.52902 11.8397 7.50782 11.7789 7.46888 11.7298C6.32714 9.91585 5.19082 8.10115 4.05995 6.28567C4.01503 6.20263 3.94722 6.13428 3.86459 6.08877C3.78197 6.04326 3.68801 6.02251 3.59393 6.02898C3.03937 6.02898 2.48481 6.02898 1.93025 6.02898H0.245586C0.159373 6.02898 0.0568485 6.00098 0.0125767 6.10132C-0.0316952 6.20166 0.0475263 6.25067 0.0871379 6.31601C1.08675 7.98447 2.07238 9.66227 3.11626 11.3121C3.24933 11.48 3.32175 11.6881 3.32175 11.9024C3.32175 12.1168 3.24933 12.3249 3.11626 12.4928C2.09102 14.1263 1.11704 15.8134 0.126749 17.4772C-0.0782994 17.8179 -0.00140634 17.9439 0.39238 17.9439C1.385 17.9439 2.37995 17.9253 3.37258 17.9439C3.52856 17.9576 3.685 17.9234 3.8211 17.8459C3.95721 17.7683 4.06652 17.6511 4.13452 17.5099" fill="#A21916"/>
<path d="M16.7149 11.7276C14.8088 8.59761 12.9067 5.46759 11.0084 2.33756C10.624 1.70518 10.2675 1.05413 9.8434 0.447417C9.75432 0.311541 9.63137 0.201311 9.4867 0.12764C9.34203 0.0539697 9.18064 0.0194111 9.01854 0.0273827C6.92145 0.0390503 4.82436 0.0273827 2.72728 0.0273827C2.59006 0.0326468 2.45268 0.0240469 2.31718 0.00171387C2.26052 -0.0037594 2.20335 0.00391781 2.15013 0.0241532C2.0969 0.0443886 2.04905 0.0766377 2.01029 0.118393C1.97152 0.160149 1.94289 0.210289 1.9266 0.264922C1.91032 0.319555 1.90684 0.37721 1.91641 0.433413C1.94175 0.536493 1.98772 0.633347 2.05155 0.718102C4.2465 4.39573 6.44223 8.07102 8.63874 11.744C8.68012 11.7969 8.7026 11.8622 8.7026 11.9295C8.7026 11.9967 8.68012 12.062 8.63874 12.115C8.27524 12.7031 7.92573 13.3004 7.57155 13.8955L2.06087 23.1502C1.98823 23.2334 1.94156 23.3361 1.92665 23.4456C1.91174 23.5551 1.92925 23.6666 1.97699 23.7663C2.09816 23.981 2.30553 23.9739 2.51291 23.9739H5.77505C6.75136 23.9739 7.73233 23.9273 8.70631 23.9879C8.99632 24.0275 9.29122 23.9691 9.54441 23.8221C9.7976 23.675 9.99463 23.4476 10.1044 23.1759C10.1223 23.1389 10.1425 23.103 10.165 23.0685C12.3304 19.4423 14.5176 15.8284 16.7265 12.227C16.7807 12.1564 16.8101 12.0699 16.8101 11.9808C16.8101 11.8918 16.7807 11.8052 16.7265 11.7346M14.5991 12.171C13.4325 14.0378 12.2884 15.914 11.1669 17.7995C11.117 17.897 11.0396 17.9777 10.9444 18.0316C10.8491 18.0856 10.7401 18.1103 10.631 18.1028C9.61971 18.1028 8.61077 18.1028 7.60184 18.1028C7.45505 18.1028 7.33388 18.1028 7.25233 17.9441C7.21871 17.8794 7.20478 17.8062 7.21223 17.7337C7.21968 17.6611 7.2482 17.5923 7.29427 17.5358C8.36922 15.7421 9.4434 13.9476 10.5168 12.1523C10.5648 12.0893 10.5908 12.0123 10.5908 11.933C10.5908 11.8537 10.5648 11.7767 10.5168 11.7136C9.42942 9.93861 8.3467 8.15814 7.26864 6.37222C7.2267 6.30688 7.14281 6.24154 7.19174 6.15753C7.24068 6.07353 7.34087 6.11553 7.42475 6.11553C7.97699 6.11553 8.53155 6.11553 9.08611 6.11553C9.64068 6.11553 10.1952 6.11553 10.7475 6.11553C10.8362 6.10779 10.9252 6.12566 11.0041 6.16701C11.083 6.20837 11.1483 6.27148 11.1925 6.34888C12.3296 8.18303 13.4675 10.0156 14.6061 11.8467C14.6434 11.8934 14.6636 11.9514 14.6636 12.0112C14.6636 12.071 14.6434 12.129 14.6061 12.1757" fill="#A21916"/>
</svg>
